<mxfile host="app.diagrams.net" agent="Mozilla/5.0 (Linux; Android 10; K) AppleWebKit/537.36 (KHTML, like Gecko) Chrome/125.0.0.0 Safari/537.36" version="26.1.0" pages="2">
  <diagram name="Page-1" id="ObYHe6Q2qPki_tsskgO0">
    <mxGraphModel dx="1211" dy="796" grid="0" gridSize="10" guides="1" tooltips="1" connect="1" arrows="1" fold="1" page="0" pageScale="1" pageWidth="827" pageHeight="1169" math="0" shadow="0">
      <root>
        <mxCell id="0" />
        <mxCell id="1" parent="0" />
        <mxCell id="2" value="Airport" style="whiteSpace=wrap;strokeWidth=2;rounded=1;labelBackgroundColor=none;fillColor=#F2CC8F;strokeColor=#E07A5F;fontColor=#393C56;" parent="1" vertex="1">
          <mxGeometry x="311" y="8" width="109" height="54" as="geometry" />
        </mxCell>
        <mxCell id="3" value="Runway 1" style="whiteSpace=wrap;strokeWidth=2;rounded=1;labelBackgroundColor=none;fillColor=#F2CC8F;strokeColor=#E07A5F;fontColor=#393C56;" parent="1" vertex="1">
          <mxGeometry x="99" y="135" width="129" height="54" as="geometry" />
        </mxCell>
        <mxCell id="4" value="Terminal" style="whiteSpace=wrap;strokeWidth=2;rounded=1;labelBackgroundColor=none;fillColor=#F2CC8F;strokeColor=#E07A5F;fontColor=#393C56;" parent="1" vertex="1">
          <mxGeometry x="479" y="135" width="122" height="54" as="geometry" />
        </mxCell>
        <mxCell id="5" value="Taxiway 1" style="whiteSpace=wrap;strokeWidth=2;rounded=1;labelBackgroundColor=none;fillColor=#F2CC8F;strokeColor=#E07A5F;fontColor=#393C56;" parent="1" vertex="1">
          <mxGeometry x="8" y="261" width="130" height="54" as="geometry" />
        </mxCell>
        <mxCell id="6" value="Taxiway 2" style="whiteSpace=wrap;strokeWidth=2;rounded=1;labelBackgroundColor=none;fillColor=#F2CC8F;strokeColor=#E07A5F;fontColor=#393C56;" parent="1" vertex="1">
          <mxGeometry x="188" y="261" width="130" height="54" as="geometry" />
        </mxCell>
        <mxCell id="7" value="Gate 1" style="whiteSpace=wrap;strokeWidth=2;rounded=1;labelBackgroundColor=none;fillColor=#F2CC8F;strokeColor=#E07A5F;fontColor=#393C56;" parent="1" vertex="1">
          <mxGeometry x="369" y="261" width="106" height="54" as="geometry" />
        </mxCell>
        <mxCell id="8" value="Gate 2" style="whiteSpace=wrap;strokeWidth=2;rounded=1;labelBackgroundColor=none;fillColor=#F2CC8F;strokeColor=#E07A5F;fontColor=#393C56;" parent="1" vertex="1">
          <mxGeometry x="605" y="261" width="106" height="54" as="geometry" />
        </mxCell>
        <mxCell id="9" value="Boarding Bridge 1" style="whiteSpace=wrap;strokeWidth=2;rounded=1;labelBackgroundColor=none;fillColor=#F2CC8F;strokeColor=#E07A5F;fontColor=#393C56;" parent="1" vertex="1">
          <mxGeometry x="329" y="388" width="187" height="54" as="geometry" />
        </mxCell>
        <mxCell id="10" value="Boarding Bridge 2" style="whiteSpace=wrap;strokeWidth=2;rounded=1;labelBackgroundColor=none;fillColor=#F2CC8F;strokeColor=#E07A5F;fontColor=#393C56;" parent="1" vertex="1">
          <mxGeometry x="565" y="388" width="187" height="54" as="geometry" />
        </mxCell>
        <mxCell id="11" value="Check-in Counter 1" style="whiteSpace=wrap;strokeWidth=2;rounded=1;labelBackgroundColor=none;fillColor=#F2CC8F;strokeColor=#E07A5F;fontColor=#393C56;" parent="1" vertex="1">
          <mxGeometry x="439" y="515" width="195" height="54" as="geometry" />
        </mxCell>
        <mxCell id="12" value="Check-in Counter 2" style="whiteSpace=wrap;strokeWidth=2;rounded=1;labelBackgroundColor=none;fillColor=#F2CC8F;strokeColor=#E07A5F;fontColor=#393C56;" parent="1" vertex="1">
          <mxGeometry x="758" y="714" width="195" height="54" as="geometry" />
        </mxCell>
        <mxCell id="13" value="Baggage Drop 1" style="whiteSpace=wrap;strokeWidth=2;rounded=1;labelBackgroundColor=none;fillColor=#F2CC8F;strokeColor=#E07A5F;fontColor=#393C56;" parent="1" vertex="1">
          <mxGeometry x="337" y="641" width="174" height="54" as="geometry" />
        </mxCell>
        <mxCell id="14" value="Baggage Drop 2" style="whiteSpace=wrap;strokeWidth=2;rounded=1;labelBackgroundColor=none;fillColor=#F2CC8F;strokeColor=#E07A5F;fontColor=#393C56;" parent="1" vertex="1">
          <mxGeometry x="539" y="645" width="224" height="50" as="geometry" />
        </mxCell>
        <mxCell id="15" value="Baggage Handling System" style="whiteSpace=wrap;strokeWidth=2;rounded=1;labelBackgroundColor=none;fillColor=#F2CC8F;strokeColor=#E07A5F;fontColor=#393C56;" parent="1" vertex="1">
          <mxGeometry x="301" y="768" width="247" height="54" as="geometry" />
        </mxCell>
        <mxCell id="16" value="Runways" style="curved=1;startArrow=none;endArrow=block;exitX=0;exitY=0.82;entryX=0.5;entryY=-0.01;rounded=1;labelBackgroundColor=none;strokeColor=#E07A5F;fontColor=default;" parent="1" source="2" target="3" edge="1">
          <mxGeometry relative="1" as="geometry">
            <Array as="points">
              <mxPoint x="163" y="98" />
            </Array>
          </mxGeometry>
        </mxCell>
        <mxCell id="17" value="" style="curved=1;startArrow=none;endArrow=block;exitX=1;exitY=0.87;entryX=0.5;entryY=-0.01;rounded=1;labelBackgroundColor=none;strokeColor=#E07A5F;fontColor=default;" parent="1" source="2" target="4" edge="1">
          <mxGeometry relative="1" as="geometry">
            <Array as="points">
              <mxPoint x="540" y="98" />
            </Array>
          </mxGeometry>
        </mxCell>
        <mxCell id="18" value="Taxiways" style="curved=1;startArrow=none;endArrow=block;exitX=0.2;exitY=0.99;entryX=0.5;entryY=0.01;rounded=1;labelBackgroundColor=none;strokeColor=#E07A5F;fontColor=default;" parent="1" source="3" target="5" edge="1">
          <mxGeometry relative="1" as="geometry">
            <Array as="points">
              <mxPoint x="73" y="225" />
            </Array>
          </mxGeometry>
        </mxCell>
        <mxCell id="19" value="" style="curved=1;startArrow=none;endArrow=block;exitX=0.8;exitY=0.99;entryX=0.5;entryY=0.01;rounded=1;labelBackgroundColor=none;strokeColor=#E07A5F;fontColor=default;" parent="1" source="3" target="6" edge="1">
          <mxGeometry relative="1" as="geometry">
            <Array as="points">
              <mxPoint x="254" y="225" />
            </Array>
          </mxGeometry>
        </mxCell>
        <mxCell id="20" value="Gates" style="curved=1;startArrow=none;endArrow=block;exitX=0.09;exitY=0.99;entryX=0.5;entryY=0.01;rounded=1;labelBackgroundColor=none;strokeColor=#E07A5F;fontColor=default;" parent="1" source="4" target="7" edge="1">
          <mxGeometry relative="1" as="geometry">
            <Array as="points">
              <mxPoint x="422" y="225" />
            </Array>
          </mxGeometry>
        </mxCell>
        <mxCell id="21" value="" style="curved=1;startArrow=none;endArrow=block;exitX=0.91;exitY=0.99;entryX=0.5;entryY=0.01;rounded=1;labelBackgroundColor=none;strokeColor=#E07A5F;fontColor=default;" parent="1" source="4" target="8" edge="1">
          <mxGeometry relative="1" as="geometry">
            <Array as="points">
              <mxPoint x="658" y="225" />
            </Array>
          </mxGeometry>
        </mxCell>
        <mxCell id="22" value="Boarding Bridges" style="curved=1;startArrow=none;endArrow=block;exitX=0.5;exitY=1.01;entryX=0.5;entryY=0;rounded=1;labelBackgroundColor=none;strokeColor=#E07A5F;fontColor=default;" parent="1" source="7" target="9" edge="1">
          <mxGeometry relative="1" as="geometry">
            <Array as="points" />
          </mxGeometry>
        </mxCell>
        <mxCell id="23" value="" style="curved=1;startArrow=none;endArrow=block;exitX=0.5;exitY=1.01;entryX=0.5;entryY=0;rounded=1;labelBackgroundColor=none;strokeColor=#E07A5F;fontColor=default;" parent="1" source="8" target="10" edge="1">
          <mxGeometry relative="1" as="geometry">
            <Array as="points" />
          </mxGeometry>
        </mxCell>
        <mxCell id="24" value="Check-in Counters" style="curved=1;startArrow=none;endArrow=block;exitX=0.22;exitY=1;entryX=0.5;entryY=-0.01;rounded=1;labelBackgroundColor=none;strokeColor=#E07A5F;fontColor=default;" parent="1" source="10" target="11" edge="1">
          <mxGeometry relative="1" as="geometry">
            <Array as="points">
              <mxPoint x="536" y="478" />
            </Array>
          </mxGeometry>
        </mxCell>
        <mxCell id="25" value="" style="curved=1;startArrow=none;endArrow=block;exitX=0.78;exitY=1;entryX=0.5;entryY=-0.01;rounded=1;labelBackgroundColor=none;strokeColor=#E07A5F;fontColor=default;" parent="1" source="10" target="12" edge="1">
          <mxGeometry relative="1" as="geometry">
            <Array as="points">
              <mxPoint x="781" y="478" />
            </Array>
          </mxGeometry>
        </mxCell>
        <mxCell id="26" value="Baggage Drop" style="curved=1;startArrow=none;endArrow=block;exitX=0.25;exitY=0.99;entryX=0.5;entryY=0.01;rounded=1;labelBackgroundColor=none;strokeColor=#E07A5F;fontColor=default;" parent="1" source="11" target="13" edge="1">
          <mxGeometry relative="1" as="geometry">
            <Array as="points">
              <mxPoint x="424" y="605" />
            </Array>
          </mxGeometry>
        </mxCell>
        <mxCell id="27" value="" style="curved=1;startArrow=none;endArrow=block;exitX=0.74;exitY=0.99;entryX=0.5;entryY=0.01;rounded=1;labelBackgroundColor=none;strokeColor=#E07A5F;fontColor=default;" parent="1" source="11" target="14" edge="1">
          <mxGeometry relative="1" as="geometry">
            <Array as="points">
              <mxPoint x="648" y="605" />
            </Array>
          </mxGeometry>
        </mxCell>
        <mxCell id="28" value="Baggage Handling" style="curved=1;startArrow=none;endArrow=block;exitX=0.5;exitY=1.01;entryX=0.5;entryY=0;rounded=1;labelBackgroundColor=none;strokeColor=#E07A5F;fontColor=default;" parent="1" source="13" target="15" edge="1">
          <mxGeometry relative="1" as="geometry">
            <Array as="points" />
          </mxGeometry>
        </mxCell>
      </root>
    </mxGraphModel>
  </diagram>
  <diagram id="rxW1Yr-LnPGKlyGwYjmY" name="Page-2">
    <mxGraphModel dx="848" dy="557" grid="0" gridSize="10" guides="1" tooltips="1" connect="1" arrows="1" fold="1" page="0" pageScale="1" pageWidth="827" pageHeight="1169" math="0" shadow="0">
      <root>
        <mxCell id="0" />
        <mxCell id="1" parent="0" />
      </root>
    </mxGraphModel>
  </diagram>
</mxfile>
